<?xml version="1.0" encoding="UTF-8"?>
<!DOCTYPE svg PUBLIC "-//W3C//DTD SVG 1.1//EN" "http://www.w3.org/Graphics/SVG/1.1/DTD/svg11.dtd">
<svg version="1.1" xmlns="http://www.w3.org/2000/svg" xmlns:xlink="http://www.w3.org/1999/xlink" x="0px" y="0px" width="80" height="80" viewBox="0, 0, 80, 80">
  <g id="Layer 1">
    <path d="M80,40 C80,62.091 62.091,80 40,80 C17.909,80 0,62.091 0,40 C0,17.909 17.909,0 40,0 C62.091,0 80,17.909 80,40 z" fill="#FFFFFF"/>
    <path d="M72.686,60.84 C57.905,64.11 43.271,54.781 40,40" fill-opacity="0" stroke="#2E0073" stroke-width="0.25"/>
    <path d="M78.726,41.705 C67.562,51.928 50.223,51.165 40,40" fill-opacity="0" stroke="#2E0073" stroke-width="0.25"/>
    <path d="M74.39,22.114 C69.833,36.549 54.436,44.558 40,40" fill-opacity="0" stroke="#2E0073" stroke-width="0.25"/>
    <path d="M60.839,7.315 C64.11,22.095 54.781,36.729 40,40" fill-opacity="0" stroke="#2E0073" stroke-width="0.25"/>
    <path d="M41.705,1.274 C51.928,12.438 51.164,29.777 40,40" fill-opacity="0" stroke="#2E0073" stroke-width="0.25"/>
    <path d="M22.113,5.61 C36.549,10.167 44.557,25.564 40,40" fill-opacity="0" stroke="#2E0073" stroke-width="0.25"/>
    <path d="M7.315,19.161 C22.095,15.889 36.729,25.22 40,40" fill-opacity="0" stroke="#2E0073" stroke-width="0.25"/>
    <path d="M1.274,38.295 C12.439,28.072 29.777,28.836 40,40" fill-opacity="0" stroke="#2E0073" stroke-width="0.25"/>
    <path d="M5.61,57.887 C10.167,43.451 25.564,35.443 40,40" fill-opacity="0" stroke="#2E0073" stroke-width="0.25"/>
    <path d="M19.161,72.686 C15.89,57.905 25.22,43.271 40,40" fill-opacity="0" stroke="#2E0073" stroke-width="0.25"/>
    <path d="M38.295,78.726 C28.072,67.562 28.835,50.223 40,40" fill-opacity="0" stroke="#2E0073" stroke-width="0.25"/>
    <path d="M57.886,74.39 C43.451,69.833 35.443,54.436 40,40" fill-opacity="0" stroke="#2E0073" stroke-width="0.25"/>
    <path d="M80,40 C80,62.091 62.091,80 40,80 C17.909,80 0,62.091 0,40 C0,17.909 17.909,0 40,0 C62.091,0 80,17.909 80,40 z" fill="url(#Gradient_1)"/>
    <path d="M40.011,20.757 C47.042,20.757 71.146,16.676 73.494,20.757 C75.841,24.838 60.117,44.006 56.752,49.847 C53.388,55.687 45.346,79.334 40.011,78.937 C34.677,78.539 26.995,56.575 23.27,49.847 C19.545,43.119 4.088,26.307 6.529,20.757 C8.969,15.207 32.98,20.757 40.011,20.757 z" fill-opacity="0" stroke="#2E0073" stroke-width="0.916"/>
    <path d="M39.989,59.243 C32.958,59.243 8.853,63.324 6.506,59.243 C4.159,55.162 19.883,35.994 23.248,30.153 C26.612,24.312 34.654,0.666 39.989,1.063 C45.323,1.461 53.005,23.425 56.73,30.153 C60.455,36.881 75.912,53.694 73.471,59.243 C71.031,64.793 47.02,59.243 39.989,59.243 z" fill-opacity="0" stroke="#2E0073" stroke-width="0.916"/>
    <path d="M20.943,40.058 C20.943,33.004 16.875,8.822 20.943,6.468 C25.011,4.113 44.118,19.888 49.94,23.263 C55.762,26.638 79.332,34.706 78.937,40.058 C78.54,45.41 56.646,53.115 49.94,56.853 C43.234,60.59 26.475,76.096 20.943,73.648 C15.411,71.199 20.943,47.111 20.943,40.058 z" fill-opacity="0" stroke="#2E0073" stroke-width="0.916"/>
    <path d="M59.057,40.08 C59.057,47.133 63.125,71.315 59.057,73.67 C54.989,76.024 35.882,60.25 30.06,56.875 C24.238,53.499 0.667,45.431 1.063,40.08 C1.459,34.728 23.354,27.022 30.06,23.285 C36.766,19.548 53.525,4.041 59.057,6.49 C64.59,8.938 59.057,33.026 59.057,40.08 z" fill-opacity="0" stroke="#2E0073" stroke-width="0.916"/>
    <path d="M40,45.083 C37.358,45.023 25.966,48.102 25.966,48.102 C25.966,48.102 34.026,39.951 35.498,37.401 C36.971,34.851 40,23.795 40,23.795 C43.133,34.789 43.429,35.542 44.433,37.44 C45.558,39.566 54.033,48.102 54.033,48.102 C54.033,48.102 42.642,45.144 40,45.083 z" fill-opacity="0" stroke="#2E0073" stroke-width="1.5" stroke-linejoin="round"/>
  </g>
  <defs>
    <radialGradient id="Gradient_1" gradientUnits="userSpaceOnUse" cx="36.347" cy="35.128" r="42.252" gradientTransform="matrix(0.947, 0, 0, 0.947, 5.59, 6.744)">
      <stop offset="0.301" stop-color="#FFFFFF" stop-opacity="0.11"/>
      <stop offset="0.528" stop-color="#FFFFFF" stop-opacity="0.8"/>
      <stop offset="0.736" stop-color="#FFFA73"/>
      <stop offset="0.994" stop-color="#FFFFFF"/>
    </radialGradient>
  </defs>
</svg>
