<?xml version="1.0" encoding="UTF-8"?>
<svg width="32px" height="24px" viewBox="0 0 32 24" version="1.1" xmlns="http://www.w3.org/2000/svg" xmlns:xlink="http://www.w3.org/1999/xlink">
    <!-- Generator: Sketch 51.3 (57544) - http://www.bohemiancoding.com/sketch -->
    <title>groups 2</title>
    <desc>Created with Sketch.</desc>
    <defs></defs>
    <g id="Page-1" stroke="none" stroke-width="1" fill="none" fill-rule="evenodd">
        <path d="M23.996,20 L8.00266667,20 L8,19.1693333 C8,17.4906667 8.13333333,16.5213333 10.1173333,16.0626667 C12.3626667,15.544 14.576,15.0813333 13.5106667,13.1173333 C10.356,7.3 12.612,4 15.9986667,4 C19.32,4 21.6333333,7.17733333 18.4866667,13.1186667 C17.4533333,15.0706667 19.588,15.5346667 21.88,16.064 C23.8666667,16.5226667 23.9986667,17.4933333 23.9986667,19.1746667 L23.996,20 Z M30.4106667,17.048 C28.6906667,16.6506667 27.0906667,16.3026667 27.8653333,14.8386667 C30.224,10.3826667 28.4906667,8 25.9986667,8 C24.312,8 23.0013333,9.08933333 23.0013333,11.0986667 C23.0013333,16.3026667 26.0253333,13.4586667 25.996,20 L31.9973333,20 L32,19.3826667 C32,18.1213333 31.9013333,17.392 30.4106667,17.048 Z M0.00266666667,20 L6.004,20 C5.976,13.4586667 8.99866667,16.304 8.99866667,11.0986667 C8.99866667,9.08933333 7.688,8 6.00133333,8 C3.50933333,8 1.776,10.3826667 4.136,14.8386667 C4.91066667,16.304 3.31066667,16.6506667 1.59066667,17.048 C0.0986666667,17.392 0,18.1213333 0,19.3826667 L0.00266666667,20 Z" id="Shape" fill="#000000" fill-rule="nonzero"></path>
    </g>
</svg>